# xmcd
#
# Track frame offsets:
# 150
# 15324
# 35512
# 76991
# 100802
# 120205
# 140015
# 161341
# 186321
# 220441
#
# Disc length: 3259 seconds
#
#
# Revision: 0
# Processed by: cddbd v1.5.2PL0 Copyright (c) Steve Scherf et al.
# Submitted via: Nero 7, 11, 10, 0 
#
DISCID=7b0cb90a
DTITLE=Aaron King And The Imperials - Just Chillin'
DYEAR=2001
DGENRE=Blues
TTITLE0=Stuck In The Middle
TTITLE1=Dead Surfer
TTITLE2=Lonely Lament
TTITLE3=Money Gettin' Cheaper
TTITLE4=So Fine
TTITLE5=I Know
TTITLE6=Real Mutha For Ya
TTITLE7=Au Revoir Mon Petit Fleur
TTITLE8=Diamonds At Her Feet
TTITLE9=Rock This House
EXTD=
EXTT0=Stuck In The Middle
EXTT1=Dead Surfer
EXTT2=Lonely Lament
EXTT3=Money Gettin' Cheaper
EXTT4=So Fine
EXTT5=I Know
EXTT6=Real Mutha For Ya
EXTT7=Au Revoir Mon Petit Fleur
EXTT8=Diamonds At Her Feet
EXTT9=Rock This House
PLAYORDER=
